<?xml version="1.0" encoding="UTF-8" standalone="no"?>
<!-- Created with Inkscape (http://www.inkscape.org/) -->
<svg
   xmlns:svg="http://www.w3.org/2000/svg"
   xmlns="http://www.w3.org/2000/svg"
   version="1.0"
   width="250"
   height="38">
  <path
     d="M 179.17329,36.30714 L 179.17329,29.61915 L 176.58882,29.61915 L 176.58882,9.95451 L 180.57414,9.95451 L 180.57414,12.50703 L 186.6839,12.50703 L 186.6839,2.77455 L 157.59187,2.77455 L 157.59187,12.50703 L 163.76073,12.50703 L 163.76073,9.95451 L 167.73646,9.95451 L 167.73646,29.61915 L 165.15519,29.61915 L 165.15519,36.30714 L 179.17329,36.30714 z M 215.55886,36.30714 L 215.55886,26.50278 L 209.44271,26.50278 L 209.44271,29.12238 L 202.49595,29.12238 L 202.49595,22.63087 L 208.60891,22.63087 L 208.60891,16.27192 L 202.49595,16.27192 L 202.49595,9.95451 L 209.25902,9.95451 L 209.25902,12.50703 L 215.32725,12.50703 L 215.32725,2.77455 L 191.18691,2.77455 L 191.18691,10.00084 L 193.79374,10.00084 L 193.79374,29.61915 L 191.18691,29.61915 L 191.18691,36.30714 L 215.32725,36.30714 L 215.55886,36.30714 z M 247.47464,24.13665 L 247.47464,28.31525 C 247.47464,29.25927 248.08003,29.9573 249.20774,29.9573 L 250.00001,29.9573 L 250.00001,36.30666 L 242.4303,36.30666 C 240.65248,36.30666 238.83472,34.56238 238.83472,32.52899 L 238.83472,25.47042 C 238.83472,23.62072 237.72618,23.1527 235.5075,23.1527 L 232.18826,23.1527 L 232.18986,29.61867 L 234.69606,29.61867 L 234.69606,36.30666 L 220.81213,36.30666 L 220.81213,29.61867 L 223.3966,29.61867 L 223.3966,10.00195 L 220.81213,10.00195 L 220.81213,2.77406 L 236.4611,2.77406 C 241.53899,2.97532 244.48445,4.35861 246.06421,6.13004 C 248.03051,8.35191 248.59117,11.83887 247.16796,14.89135 C 246.307,16.73945 244.35188,18.47894 241.90957,19.20732 C 245.49077,19.56991 247.33408,21.3062 247.47464,24.13665 M 235.91003,16.27304 C 239.79471,16.27304 239.91771,9.95562 235.91003,9.95562 L 232.18826,9.95562 L 232.18826,16.27304 L 235.91003,16.27304 z M 125.51921,29.1219 C 125.51921,40.10349 151.05082,40.24885 151.05082,29.1219 L 151.05082,10.00195 L 153.71355,10.00195 L 153.71355,2.77406 L 140.39668,2.77406 L 140.39668,9.95562 L 143.03226,9.95562 L 143.03226,26.54542 C 142.97955,31.17446 134.37637,31.02271 134.37637,26.54542 L 134.37637,9.95562 L 137.01674,9.95562 L 137.01674,2.77406 L 122.86127,2.77406 L 122.86127,10.00195 L 125.5288,10.00195 L 125.51921,29.1219 z M 99.639557,20.95783 L 102.98116,9.08174 L 106.34512,20.95783 L 99.639557,20.95783 z M 117.88577,29.61851 L 110.19626,2.77391 L 96.992787,2.77391 L 89.288907,29.61851 L 86.678877,29.61851 L 86.678877,36.3065 L 99.800887,36.3065 L 99.800887,29.61851 L 97.190857,29.61851 L 98.019867,26.54526 L 107.95682,26.54526 L 108.94396,29.61851 L 106.19018,29.61851 L 106.19018,36.3065 L 120.60761,36.3065 L 120.60761,29.61851 L 117.88577,29.61851 z M 75.713097,11.80134 L 81.974597,11.80134 L 81.974597,2.77327 L 75.823307,2.77327 L 75.823307,5.2028 C 74.586977,4.11981 71.863547,1.89315 66.986917,1.89315 C 62.150227,1.89315 57.995587,4.44567 56.673007,7.99971 C 55.305697,11.66876 55.784897,17.88554 61.688597,20.60418 C 64.627677,21.97149 67.306387,22.89634 68.731197,23.61993 C 71.476997,24.74125 73.972007,26.10217 73.414547,28.43426 C 72.807567,31.00275 70.061767,31.23756 67.619457,31.01713 C 63.658097,30.65613 61.329207,28.57322 61.389897,25.84979 L 61.396287,25.84979 L 55.177917,25.84979 L 55.177917,36.30267 L 61.353167,36.30267 L 61.353167,33.59201 C 63.071877,35.73242 67.095537,37.31857 71.727777,37.32975 C 76.610787,37.34732 81.249417,35.11586 82.362747,30.58106 C 83.509627,25.88174 82.177457,20.88212 75.858447,18.10597 C 73.636577,17.05493 68.993157,14.95765 67.522027,14.25642 C 65.324107,13.24532 64.747477,12.06649 64.988667,10.87489 C 65.360847,9.04596 67.485287,8.08596 69.980297,8.1243 C 73.304327,8.18021 75.717887,9.66731 75.705107,11.83009 L 75.713097,11.80134 z M 28.961057,32.56845 C 14.460562,32.56845 2.705865,20.81375 2.705865,6.31485 C 2.705865,4.44758 2.903933,2.62823 3.274511,0.87118 C 1.196395,4.45078 0,8.60701 0,13.04597 C 0,26.45549 10.871378,37.32687 24.282497,37.32687 C 31.836237,37.32687 38.583327,33.87985 43.035067,28.47132 C 38.966687,31.06217 34.142767,32.56845 28.961057,32.56845"
     style="fill:#0d88d3;fill-opacity:1;fill-rule:nonzero;stroke:none" />
  <path
     d="M 32.614137,21.98076 C 21.523927,21.98076 12.056591,15.06435 8.269339,5.31429 C 8.269339,5.35902 8.266145,5.40374 8.266145,5.44847 C 8.266145,17.41241 17.965087,27.11136 29.929037,27.11136 C 37.824597,27.11136 45.224997,22.48551 49.010647,16.17608 C 44.606827,19.56401 38.600897,21.98076 32.614137,21.98076"
     style="fill:#80cdf2;fill-opacity:1;fill-rule:nonzero;stroke:none" />
  <path
     d="M 31.761007,11.20042 C 24.683277,11.20042 18.263637,8.39393 13.540351,3.83996 C 16.779717,11.25154 24.172127,16.43166 32.778507,16.43166 C 42.804897,16.43166 51.184457,9.40024 53.267357,0 C 48.518517,6.76945 40.659697,11.20042 31.761007,11.20042"
     style="fill:#fee011;fill-opacity:1;fill-rule:nonzero;stroke:none" />
</svg>
